# MagicaVoxel @ Ephtracy

# group
o 

# material
mtllib MahoganyStub.mtl
usemtl palette

# normals
vn -1 0 0
vn 1 0 0
vn 0 0 1
vn 0 0 -1
vn 0 -1 0
vn 0 1 0

# texcoords
vt 0.369141 0.5
vt 0.373047 0.5
vt 0.396484 0.5
vt 0.537109 0.5

# verts
v -0.4 0 0.2
v -0.4 0 -0.2
v -0.4 0.3 0.1
v -0.4 0.3 0
v -0.4 0.4 0.1
v -0.4 0.4 0
v -0.4 0.7 0.2
v -0.4 0.7 -0.2
v -0.3 0 0.3
v -0.3 0 0.2
v -0.3 0 -0.2
v -0.3 0 -0.3
v -0.3 0.7 0.3
v -0.3 0.7 0.2
v -0.3 0.7 -0.2
v -0.3 0.7 -0.3
v -0.2 0 0.4
v -0.2 0 0.3
v -0.2 0 -0.3
v -0.2 0 -0.4
v -0.2 0.7 0.4
v -0.2 0.7 0.3
v -0.2 0.7 -0.3
v -0.2 0.7 -0.4
v 0.2 0 0.4
v 0.2 0 0.3
v 0.2 0 -0.3
v 0.2 0 -0.4
v 0.2 0.1 0.3
v 0.2 0.2 0.3
v 0.2 0.7 0.4
v 0.2 0.7 0.3
v 0.2 0.7 -0.3
v 0.2 0.7 -0.4
v 0.3 0 0.3
v 0.3 0 0.2
v 0.3 0 -0.2
v 0.3 0 -0.3
v 0.3 0.1 0.3
v 0.3 0.1 0.2
v 0.3 0.2 0.3
v 0.3 0.2 0.2
v 0.3 0.5 0.2
v 0.3 0.6 0.2
v 0.3 0.7 0.3
v 0.3 0.7 0.2
v 0.3 0.7 -0.2
v 0.3 0.7 -0.3
v 0.4 0 0.2
v 0.4 0 -0.2
v 0.4 0.1 0.2
v 0.4 0.1 0.1
v 0.4 0.2 0.2
v 0.4 0.2 0.1
v 0.4 0.4 0.1
v 0.4 0.4 0
v 0.4 0.5 0.2
v 0.4 0.5 0.1
v 0.4 0.5 0
v 0.4 0.6 0.2
v 0.4 0.6 0.1
v 0.4 0.7 0.2
v 0.4 0.7 -0.2
v -0.2 0 0.4
v -0.2 0.7 0.4
v 0 0.2 0.4
v 0 0.3 0.4
v 0.1 0.2 0.4
v 0.1 0.3 0.4
v 0.2 0 0.4
v 0.2 0.7 0.4
v -0.3 0 0.3
v -0.3 0.7 0.3
v -0.2 0 0.3
v -0.2 0.7 0.3
v 0.2 0 0.3
v 0.2 0.1 0.3
v 0.2 0.2 0.3
v 0.2 0.7 0.3
v 0.3 0 0.3
v 0.3 0.1 0.3
v 0.3 0.2 0.3
v 0.3 0.7 0.3
v -0.4 0 0.2
v -0.4 0.7 0.2
v -0.3 0 0.2
v -0.3 0.7 0.2
v 0.3 0 0.2
v 0.3 0.1 0.2
v 0.3 0.2 0.2
v 0.3 0.5 0.2
v 0.3 0.6 0.2
v 0.3 0.7 0.2
v 0.4 0 0.2
v 0.4 0.1 0.2
v 0.4 0.2 0.2
v 0.4 0.5 0.2
v 0.4 0.6 0.2
v 0.4 0.7 0.2
v -0.4 0 -0.2
v -0.4 0.7 -0.2
v -0.3 0 -0.2
v -0.3 0.7 -0.2
v 0.3 0 -0.2
v 0.3 0.7 -0.2
v 0.4 0 -0.2
v 0.4 0.7 -0.2
v -0.3 0 -0.3
v -0.3 0.7 -0.3
v -0.2 0 -0.3
v -0.2 0.7 -0.3
v 0.2 0 -0.3
v 0.2 0.7 -0.3
v 0.3 0 -0.3
v 0.3 0.7 -0.3
v -0.2 0 -0.4
v -0.2 0.7 -0.4
v 0 0.2 -0.4
v 0 0.3 -0.4
v 0.1 0.2 -0.4
v 0.1 0.3 -0.4
v 0.2 0 -0.4
v 0.2 0.7 -0.4
v -0.2 0 0.4
v 0.2 0 0.4
v -0.3 0 0.3
v -0.2 0 0.3
v 0.2 0 0.3
v 0.3 0 0.3
v -0.4 0 0.2
v -0.3 0 0.2
v 0.3 0 0.2
v 0.4 0 0.2
v -0.4 0 -0.2
v -0.3 0 -0.2
v 0.3 0 -0.2
v 0.4 0 -0.2
v -0.3 0 -0.3
v -0.2 0 -0.3
v 0.2 0 -0.3
v 0.3 0 -0.3
v -0.2 0 -0.4
v 0.2 0 -0.4
v -0.2 0.7 0.4
v 0.2 0.7 0.4
v -0.3 0.7 0.3
v -0.2 0.7 0.3
v 0.2 0.7 0.3
v 0.3 0.7 0.3
v -0.4 0.7 0.2
v -0.3 0.7 0.2
v -0.2 0.7 0.2
v 0.2 0.7 0.2
v 0.3 0.7 0.2
v 0.4 0.7 0.2
v -0.1 0.7 0.1
v 0.1 0.7 0.1
v -0.1 0.7 -0.1
v 0.1 0.7 -0.1
v -0.4 0.7 -0.2
v -0.3 0.7 -0.2
v -0.2 0.7 -0.2
v 0.2 0.7 -0.2
v 0.3 0.7 -0.2
v 0.4 0.7 -0.2
v -0.3 0.7 -0.3
v -0.2 0.7 -0.3
v 0.2 0.7 -0.3
v 0.3 0.7 -0.3
v -0.2 0.7 -0.4
v 0.2 0.7 -0.4

# faces
f 3/3/1 2/3/1 1/3/1
f 4/3/1 2/3/1 3/3/1
f 5/3/1 3/3/1 1/3/1
f 5/4/1 4/4/1 3/4/1
f 6/3/1 2/3/1 4/3/1
f 6/4/1 4/4/1 5/4/1
f 7/3/1 5/3/1 1/3/1
f 7/3/1 6/3/1 5/3/1
f 8/3/1 2/3/1 6/3/1
f 8/3/1 6/3/1 7/3/1
f 13/3/1 10/3/1 9/3/1
f 14/3/1 10/3/1 13/3/1
f 15/3/1 12/3/1 11/3/1
f 16/3/1 12/3/1 15/3/1
f 21/3/1 18/3/1 17/3/1
f 22/3/1 18/3/1 21/3/1
f 23/3/1 20/3/1 19/3/1
f 24/3/1 20/3/1 23/3/1
f 25/3/2 26/3/2 29/3/2
f 25/3/2 29/3/2 30/3/2
f 25/3/2 30/3/2 31/3/2
f 31/3/2 30/3/2 32/3/2
f 27/3/2 28/3/2 33/3/2
f 33/3/2 28/3/2 34/3/2
f 35/3/2 36/3/2 39/3/2
f 39/3/2 36/3/2 40/3/2
f 39/4/2 40/4/2 41/4/2
f 41/4/2 40/4/2 42/4/2
f 41/3/2 42/3/2 43/3/2
f 41/3/2 43/3/2 44/3/2
f 41/3/2 44/3/2 45/3/2
f 45/3/2 44/3/2 46/3/2
f 37/3/2 38/3/2 47/3/2
f 47/3/2 38/3/2 48/3/2
f 49/3/2 50/3/2 51/3/2
f 51/3/2 50/3/2 52/3/2
f 51/4/2 52/4/2 53/4/2
f 52/3/2 50/3/2 54/3/2
f 53/4/2 52/4/2 54/4/2
f 53/3/2 54/3/2 55/3/2
f 54/3/2 50/3/2 55/3/2
f 55/3/2 50/3/2 56/3/2
f 53/3/2 55/3/2 57/3/2
f 55/4/2 56/4/2 58/4/2
f 57/3/2 55/3/2 58/3/2
f 56/3/2 50/3/2 59/3/2
f 58/4/2 56/4/2 59/4/2
f 57/4/2 58/4/2 60/4/2
f 58/3/2 59/3/2 61/3/2
f 60/4/2 58/4/2 61/4/2
f 60/3/2 61/3/2 62/3/2
f 59/3/2 50/3/2 63/3/2
f 62/3/2 61/3/2 63/3/2
f 61/3/2 59/3/2 63/3/2
f 66/3/3 65/3/3 64/3/3
f 67/3/3 65/3/3 66/3/3
f 68/3/3 66/3/3 64/3/3
f 68/4/3 67/4/3 66/4/3
f 69/3/3 65/3/3 67/3/3
f 69/4/3 67/4/3 68/4/3
f 70/3/3 68/3/3 64/3/3
f 70/3/3 69/3/3 68/3/3
f 71/3/3 65/3/3 69/3/3
f 71/3/3 69/3/3 70/3/3
f 74/3/3 73/3/3 72/3/3
f 75/3/3 73/3/3 74/3/3
f 80/3/3 77/3/3 76/3/3
f 81/4/3 78/4/3 77/4/3
f 81/3/3 77/3/3 80/3/3
f 82/3/3 79/3/3 78/3/3
f 82/4/3 78/4/3 81/4/3
f 83/3/3 79/3/3 82/3/3
f 86/3/3 85/3/3 84/3/3
f 87/3/3 85/3/3 86/3/3
f 94/3/3 89/3/3 88/3/3
f 95/4/3 90/4/3 89/4/3
f 95/3/3 89/3/3 94/3/3
f 96/3/3 91/3/3 90/3/3
f 96/4/3 90/4/3 95/4/3
f 97/4/3 92/4/3 91/4/3
f 97/3/3 91/3/3 96/3/3
f 98/3/3 93/3/3 92/3/3
f 98/4/3 92/4/3 97/4/3
f 99/3/3 93/3/3 98/3/3
f 100/3/4 101/3/4 102/3/4
f 102/3/4 101/3/4 103/3/4
f 104/3/4 105/3/4 106/3/4
f 106/3/4 105/3/4 107/3/4
f 108/3/4 109/3/4 110/3/4
f 110/3/4 109/3/4 111/3/4
f 112/3/4 113/3/4 114/3/4
f 114/3/4 113/3/4 115/3/4
f 116/3/4 117/3/4 118/3/4
f 118/3/4 117/3/4 119/3/4
f 116/3/4 118/3/4 120/3/4
f 118/4/4 119/4/4 120/4/4
f 119/3/4 117/3/4 121/3/4
f 120/4/4 119/4/4 121/4/4
f 116/3/4 120/3/4 122/3/4
f 120/3/4 121/3/4 122/3/4
f 121/3/4 117/3/4 123/3/4
f 122/3/4 121/3/4 123/3/4
f 127/3/5 125/3/5 124/3/5
f 128/3/5 125/3/5 127/3/5
f 131/3/5 127/3/5 126/3/5
f 131/3/5 129/3/5 128/3/5
f 131/3/5 128/3/5 127/3/5
f 132/3/5 129/3/5 131/3/5
f 134/3/5 131/3/5 130/3/5
f 134/3/5 133/3/5 132/3/5
f 134/3/5 132/3/5 131/3/5
f 135/3/5 133/3/5 134/3/5
f 136/3/5 133/3/5 135/3/5
f 137/3/5 133/3/5 136/3/5
f 138/3/5 136/3/5 135/3/5
f 139/3/5 136/3/5 138/3/5
f 140/3/5 136/3/5 139/3/5
f 141/3/5 136/3/5 140/3/5
f 142/3/5 140/3/5 139/3/5
f 143/3/5 140/3/5 142/3/5
f 144/3/6 145/3/6 147/3/6
f 147/3/6 145/3/6 148/3/6
f 146/3/6 147/3/6 151/3/6
f 147/4/6 148/4/6 152/4/6
f 151/3/6 147/3/6 152/3/6
f 148/3/6 149/3/6 153/3/6
f 152/4/6 148/4/6 153/4/6
f 153/3/6 149/3/6 154/3/6
f 152/2/6 153/2/6 156/2/6
f 156/2/6 153/2/6 157/2/6
f 152/2/6 156/2/6 158/2/6
f 156/1/6 157/1/6 158/1/6
f 157/2/6 153/2/6 159/2/6
f 158/1/6 157/1/6 159/1/6
f 150/3/6 151/3/6 160/3/6
f 151/4/6 152/4/6 161/4/6
f 160/3/6 151/3/6 161/3/6
f 152/2/6 158/2/6 162/2/6
f 161/4/6 152/4/6 162/4/6
f 158/2/6 159/2/6 162/2/6
f 159/2/6 153/2/6 163/2/6
f 162/2/6 159/2/6 163/2/6
f 153/4/6 154/4/6 163/4/6
f 154/3/6 155/3/6 164/3/6
f 163/4/6 154/4/6 164/4/6
f 164/3/6 155/3/6 165/3/6
f 161/3/6 162/3/6 166/3/6
f 162/4/6 163/4/6 167/4/6
f 166/3/6 162/3/6 167/3/6
f 163/3/6 164/3/6 168/3/6
f 167/4/6 163/4/6 168/4/6
f 168/3/6 164/3/6 169/3/6
f 167/3/6 168/3/6 170/3/6
f 170/3/6 168/3/6 171/3/6
