# MagicaVoxel @ Ephtracy

# group
o 

# material
mtllib IronAxe.mtl
usemtl palette

# normals
vn -1 0 0
vn 1 0 0
vn 0 0 1
vn 0 0 -1
vn 0 -1 0
vn 0 1 0

# texcoords
vt 0.537109 0.5
vt 0.974609 0.5

# verts
v -0.4 0 0.2
v -0.4 0 -0.2
v -0.4 7.2 0.2
v -0.4 7.2 -0.2
v -0.2 0 0.4
v -0.2 0 0.2
v -0.2 0 -0.2
v -0.2 0 -0.4
v -0.2 7.2 0.4
v -0.2 7.2 0.2
v -0.2 7.2 -0.2
v -0.2 7.2 -0.4
v -0.2 7.4 0.2
v -0.2 7.4 -0.2
v 0.6 4.8 0.1
v 0.6 4.8 -0.1
v 0.6 4.9 0.2
v 0.6 4.9 0.1
v 0.6 4.9 -0.1
v 0.6 4.9 -0.2
v 0.6 5 0.2
v 0.6 5 -0.2
v 0.6 6.8 0.2
v 0.6 6.8 -0.2
v 0.6 6.9 0.2
v 0.6 6.9 0.1
v 0.6 6.9 -0.1
v 0.6 6.9 -0.2
v 0.6 7 0.1
v 0.6 7 -0.1
v 0.7 4.8 0.2
v 0.7 4.8 0.1
v 0.7 4.8 -0.1
v 0.7 4.8 -0.2
v 0.7 4.9 0.2
v 0.7 4.9 0.1
v 0.7 4.9 -0.1
v 0.7 4.9 -0.2
v 0.7 6.9 0.2
v 0.7 6.9 0.1
v 0.7 6.9 -0.1
v 0.7 6.9 -0.2
v 0.7 7 0.2
v 0.7 7 0.1
v 0.7 7 -0.1
v 0.7 7 -0.2
v 0.8 4.6 0.1
v 0.8 4.6 -0.1
v 0.8 4.7 0.2
v 0.8 4.7 0.1
v 0.8 4.7 -0.1
v 0.8 4.7 -0.2
v 0.8 4.8 0.2
v 0.8 4.8 -0.2
v 0.8 7 0.2
v 0.8 7 -0.2
v 0.8 7.1 0.2
v 0.8 7.1 0.1
v 0.8 7.1 -0.1
v 0.8 7.1 -0.2
v 0.8 7.2 0.1
v 0.8 7.2 -0.1
v 0.9 4.6 0.2
v 0.9 4.6 0.1
v 0.9 4.6 -0.1
v 0.9 4.6 -0.2
v 0.9 4.7 0.2
v 0.9 4.7 0.1
v 0.9 4.7 -0.1
v 0.9 4.7 -0.2
v 0.9 7.1 0.2
v 0.9 7.1 0.1
v 0.9 7.1 -0.1
v 0.9 7.1 -0.2
v 0.9 7.2 0.2
v 0.9 7.2 0.1
v 0.9 7.2 -0.1
v 0.9 7.2 -0.2
v 1 4.4 0.1
v 1 4.4 -0.1
v 1 4.5 0.2
v 1 4.5 0.1
v 1 4.5 -0.1
v 1 4.5 -0.2
v 1 4.6 0.2
v 1 4.6 -0.2
v 1 7.2 0.2
v 1 7.2 -0.2
v 1 7.3 0.2
v 1 7.3 0.1
v 1 7.3 -0.1
v 1 7.3 -0.2
v 1 7.4 0.1
v 1 7.4 -0.1
v 1.1 4.4 0.2
v 1.1 4.4 0.1
v 1.1 4.4 -0.1
v 1.1 4.4 -0.2
v 1.1 4.5 0.2
v 1.1 4.5 0.1
v 1.1 4.5 -0.1
v 1.1 4.5 -0.2
v 1.1 7.3 0.2
v 1.1 7.3 0.1
v 1.1 7.3 -0.1
v 1.1 7.3 -0.2
v 1.1 7.4 0.2
v 1.1 7.4 0.1
v 1.1 7.4 -0.1
v 1.1 7.4 -0.2
v 1.2 4.2 0.1
v 1.2 4.2 -0.1
v 1.2 4.3 0.2
v 1.2 4.3 0.1
v 1.2 4.3 -0.1
v 1.2 4.3 -0.2
v 1.2 4.4 0.2
v 1.2 4.4 -0.2
v 1.2 7.4 0.2
v 1.2 7.4 -0.2
v 1.2 7.5 0.2
v 1.2 7.5 0.1
v 1.2 7.5 -0.1
v 1.2 7.5 -0.2
v 1.2 7.6 0.1
v 1.2 7.6 -0.1
v 1.3 4.2 0.2
v 1.3 4.2 0.1
v 1.3 4.2 -0.1
v 1.3 4.2 -0.2
v 1.3 4.3 0.2
v 1.3 4.3 0.1
v 1.3 4.3 -0.1
v 1.3 4.3 -0.2
v 1.3 7.5 0.2
v 1.3 7.5 0.1
v 1.3 7.5 -0.1
v 1.3 7.5 -0.2
v 1.3 7.6 0.2
v 1.3 7.6 0.1
v 1.3 7.6 -0.1
v 1.3 7.6 -0.2
v 1.4 4 0.1
v 1.4 4 -0.1
v 1.4 4.1 0.2
v 1.4 4.1 0.1
v 1.4 4.1 -0.1
v 1.4 4.1 -0.2
v 1.4 4.2 0.2
v 1.4 4.2 -0.2
v 1.4 7.6 0.2
v 1.4 7.6 -0.2
v 1.4 7.7 0.2
v 1.4 7.7 0.1
v 1.4 7.7 -0.1
v 1.4 7.7 -0.2
v 1.4 7.8 0.1
v 1.4 7.8 -0.1
v 1.5 4 0.2
v 1.5 4 0.1
v 1.5 4 -0.1
v 1.5 4 -0.2
v 1.5 4.1 0.2
v 1.5 4.1 0.1
v 1.5 4.1 -0.1
v 1.5 4.1 -0.2
v 1.5 7.7 0.2
v 1.5 7.7 0.1
v 1.5 7.7 -0.1
v 1.5 7.7 -0.2
v 1.5 7.8 0.2
v 1.5 7.8 0.1
v 1.5 7.8 -0.1
v 1.5 7.8 -0.2
v 0.2 0 0.4
v 0.2 0 0.2
v 0.2 0 -0.2
v 0.2 0 -0.4
v 0.2 7.2 0.4
v 0.2 7.2 0.2
v 0.2 7.2 -0.2
v 0.2 7.2 -0.4
v 0.2 7.4 0.2
v 0.2 7.4 -0.2
v 0.4 0 0.2
v 0.4 0 -0.2
v 0.4 5 0.2
v 0.4 5 -0.2
v 0.4 6.8 0.2
v 0.4 6.8 -0.2
v 0.4 7.2 0.2
v 0.4 7.2 -0.2
v 1.7 7.7 0.2
v 1.7 7.7 0.1
v 1.7 7.7 -0.1
v 1.7 7.7 -0.2
v 1.7 7.8 0.2
v 1.7 7.8 0.1
v 1.7 7.8 -0.1
v 1.7 7.8 -0.2
v 1.8 4 0.2
v 1.8 4 -0.2
v 1.8 4.1 0.2
v 1.8 4.1 -0.2
v 1.8 7.7 0.1
v 1.8 7.7 -0.1
v 1.8 7.8 0.1
v 1.8 7.8 -0.1
v 1.9 4.1 0.2
v 1.9 4.1 0.1
v 1.9 4.1 -0.1
v 1.9 4.1 -0.2
v 1.9 7.6 0.1
v 1.9 7.6 -0.1
v 1.9 7.7 0.2
v 1.9 7.7 -0.2
v 2 4.1 0.1
v 2 4.1 -0.1
v 2 7.6 0.1
v 2 7.6 -0.1
v -0.2 0 0.4
v -0.2 7.2 0.4
v 0.2 0 0.4
v 0.2 7.2 0.4
v -0.4 0 0.2
v -0.4 7.2 0.2
v -0.2 0 0.2
v -0.2 7.2 0.2
v -0.2 7.4 0.2
v 0.2 0 0.2
v 0.2 7.2 0.2
v 0.2 7.4 0.2
v 0.4 0 0.2
v 0.4 5 0.2
v 0.4 6.8 0.2
v 0.4 7.2 0.2
v 0.6 4.9 0.2
v 0.6 5 0.2
v 0.6 6.8 0.2
v 0.6 6.9 0.2
v 0.7 4.8 0.2
v 0.7 4.9 0.2
v 0.7 6.9 0.2
v 0.7 7 0.2
v 0.8 4.7 0.2
v 0.8 4.8 0.2
v 0.8 7 0.2
v 0.8 7.1 0.2
v 0.9 4.6 0.2
v 0.9 4.7 0.2
v 0.9 7.1 0.2
v 0.9 7.2 0.2
v 1 4.5 0.2
v 1 4.6 0.2
v 1 7.2 0.2
v 1 7.3 0.2
v 1.1 4.4 0.2
v 1.1 4.5 0.2
v 1.1 7.3 0.2
v 1.1 7.4 0.2
v 1.2 4.3 0.2
v 1.2 4.4 0.2
v 1.2 7.4 0.2
v 1.2 7.5 0.2
v 1.3 4.2 0.2
v 1.3 4.3 0.2
v 1.3 7.5 0.2
v 1.3 7.6 0.2
v 1.4 4.1 0.2
v 1.4 4.2 0.2
v 1.4 7.6 0.2
v 1.4 7.7 0.2
v 1.5 4 0.2
v 1.5 4.1 0.2
v 1.5 7.7 0.2
v 1.5 7.8 0.2
v 1.7 7.7 0.2
v 1.7 7.8 0.2
v 1.8 4 0.2
v 1.8 4.1 0.2
v 1.9 4.1 0.2
v 1.9 7.7 0.2
v 0.6 4.8 0.1
v 0.6 4.9 0.1
v 0.6 6.9 0.1
v 0.6 7 0.1
v 0.7 4.8 0.1
v 0.7 4.9 0.1
v 0.7 6.9 0.1
v 0.7 7 0.1
v 0.8 4.6 0.1
v 0.8 4.7 0.1
v 0.8 7.1 0.1
v 0.8 7.2 0.1
v 0.9 4.6 0.1
v 0.9 4.7 0.1
v 0.9 7.1 0.1
v 0.9 7.2 0.1
v 1 4.4 0.1
v 1 4.5 0.1
v 1 7.3 0.1
v 1 7.4 0.1
v 1.1 4.4 0.1
v 1.1 4.5 0.1
v 1.1 7.3 0.1
v 1.1 7.4 0.1
v 1.2 4.2 0.1
v 1.2 4.3 0.1
v 1.2 7.5 0.1
v 1.2 7.6 0.1
v 1.3 4.2 0.1
v 1.3 4.3 0.1
v 1.3 7.5 0.1
v 1.3 7.6 0.1
v 1.4 4 0.1
v 1.4 4.1 0.1
v 1.4 7.7 0.1
v 1.4 7.8 0.1
v 1.5 4 0.1
v 1.5 4.1 0.1
v 1.5 7.7 0.1
v 1.5 7.8 0.1
v 1.7 7.7 0.1
v 1.7 7.8 0.1
v 1.8 7.7 0.1
v 1.8 7.8 0.1
v 1.9 4.1 0.1
v 1.9 7.6 0.1
v 2 4.1 0.1
v 2 7.6 0.1
v 0.6 4.8 -0.1
v 0.6 4.9 -0.1
v 0.6 6.9 -0.1
v 0.6 7 -0.1
v 0.7 4.8 -0.1
v 0.7 4.9 -0.1
v 0.7 6.9 -0.1
v 0.7 7 -0.1
v 0.8 4.6 -0.1
v 0.8 4.7 -0.1
v 0.8 7.1 -0.1
v 0.8 7.2 -0.1
v 0.9 4.6 -0.1
v 0.9 4.7 -0.1
v 0.9 7.1 -0.1
v 0.9 7.2 -0.1
v 1 4.4 -0.1
v 1 4.5 -0.1
v 1 7.3 -0.1
v 1 7.4 -0.1
v 1.1 4.4 -0.1
v 1.1 4.5 -0.1
v 1.1 7.3 -0.1
v 1.1 7.4 -0.1
v 1.2 4.2 -0.1
v 1.2 4.3 -0.1
v 1.2 7.5 -0.1
v 1.2 7.6 -0.1
v 1.3 4.2 -0.1
v 1.3 4.3 -0.1
v 1.3 7.5 -0.1
v 1.3 7.6 -0.1
v 1.4 4 -0.1
v 1.4 4.1 -0.1
v 1.4 7.7 -0.1
v 1.4 7.8 -0.1
v 1.5 4 -0.1
v 1.5 4.1 -0.1
v 1.5 7.7 -0.1
v 1.5 7.8 -0.1
v 1.7 7.7 -0.1
v 1.7 7.8 -0.1
v 1.8 7.7 -0.1
v 1.8 7.8 -0.1
v 1.9 4.1 -0.1
v 1.9 7.6 -0.1
v 2 4.1 -0.1
v 2 7.6 -0.1
v -0.4 0 -0.2
v -0.4 7.2 -0.2
v -0.2 0 -0.2
v -0.2 7.2 -0.2
v -0.2 7.4 -0.2
v 0.2 0 -0.2
v 0.2 7.2 -0.2
v 0.2 7.4 -0.2
v 0.4 0 -0.2
v 0.4 5 -0.2
v 0.4 6.8 -0.2
v 0.4 7.2 -0.2
v 0.6 4.9 -0.2
v 0.6 5 -0.2
v 0.6 6.8 -0.2
v 0.6 6.9 -0.2
v 0.7 4.8 -0.2
v 0.7 4.9 -0.2
v 0.7 6.9 -0.2
v 0.7 7 -0.2
v 0.8 4.7 -0.2
v 0.8 4.8 -0.2
v 0.8 7 -0.2
v 0.8 7.1 -0.2
v 0.9 4.6 -0.2
v 0.9 4.7 -0.2
v 0.9 7.1 -0.2
v 0.9 7.2 -0.2
v 1 4.5 -0.2
v 1 4.6 -0.2
v 1 7.2 -0.2
v 1 7.3 -0.2
v 1.1 4.4 -0.2
v 1.1 4.5 -0.2
v 1.1 7.3 -0.2
v 1.1 7.4 -0.2
v 1.2 4.3 -0.2
v 1.2 4.4 -0.2
v 1.2 7.4 -0.2
v 1.2 7.5 -0.2
v 1.3 4.2 -0.2
v 1.3 4.3 -0.2
v 1.3 7.5 -0.2
v 1.3 7.6 -0.2
v 1.4 4.1 -0.2
v 1.4 4.2 -0.2
v 1.4 7.6 -0.2
v 1.4 7.7 -0.2
v 1.5 4 -0.2
v 1.5 4.1 -0.2
v 1.5 7.7 -0.2
v 1.5 7.8 -0.2
v 1.7 7.7 -0.2
v 1.7 7.8 -0.2
v 1.8 4 -0.2
v 1.8 4.1 -0.2
v 1.9 4.1 -0.2
v 1.9 7.7 -0.2
v -0.2 0 -0.4
v -0.2 7.2 -0.4
v 0.2 0 -0.4
v 0.2 7.2 -0.4
v -0.2 0 0.4
v 0.2 0 0.4
v -0.4 0 0.2
v -0.2 0 0.2
v 0.2 0 0.2
v 0.4 0 0.2
v -0.4 0 -0.2
v -0.2 0 -0.2
v 0.2 0 -0.2
v 0.4 0 -0.2
v -0.2 0 -0.4
v 0.2 0 -0.4
v 1.5 4 0.2
v 1.8 4 0.2
v 1.4 4 0.1
v 1.5 4 0.1
v 1.4 4 -0.1
v 1.5 4 -0.1
v 1.5 4 -0.2
v 1.8 4 -0.2
v 1.4 4.1 0.2
v 1.5 4.1 0.2
v 1.8 4.1 0.2
v 1.9 4.1 0.2
v 1.4 4.1 0.1
v 1.5 4.1 0.1
v 1.9 4.1 0.1
v 2 4.1 0.1
v 1.4 4.1 -0.1
v 1.5 4.1 -0.1
v 1.9 4.1 -0.1
v 2 4.1 -0.1
v 1.4 4.1 -0.2
v 1.5 4.1 -0.2
v 1.8 4.1 -0.2
v 1.9 4.1 -0.2
v 1.3 4.2 0.2
v 1.4 4.2 0.2
v 1.2 4.2 0.1
v 1.3 4.2 0.1
v 1.2 4.2 -0.1
v 1.3 4.2 -0.1
v 1.3 4.2 -0.2
v 1.4 4.2 -0.2
v 1.2 4.3 0.2
v 1.3 4.3 0.2
v 1.2 4.3 0.1
v 1.3 4.3 0.1
v 1.2 4.3 -0.1
v 1.3 4.3 -0.1
v 1.2 4.3 -0.2
v 1.3 4.3 -0.2
v 1.1 4.4 0.2
v 1.2 4.4 0.2
v 1 4.4 0.1
v 1.1 4.4 0.1
v 1 4.4 -0.1
v 1.1 4.4 -0.1
v 1.1 4.4 -0.2
v 1.2 4.4 -0.2
v 1 4.5 0.2
v 1.1 4.5 0.2
v 1 4.5 0.1
v 1.1 4.5 0.1
v 1 4.5 -0.1
v 1.1 4.5 -0.1
v 1 4.5 -0.2
v 1.1 4.5 -0.2
v 0.9 4.6 0.2
v 1 4.6 0.2
v 0.8 4.6 0.1
v 0.9 4.6 0.1
v 0.8 4.6 -0.1
v 0.9 4.6 -0.1
v 0.9 4.6 -0.2
v 1 4.6 -0.2
v 0.8 4.7 0.2
v 0.9 4.7 0.2
v 0.8 4.7 0.1
v 0.9 4.7 0.1
v 0.8 4.7 -0.1
v 0.9 4.7 -0.1
v 0.8 4.7 -0.2
v 0.9 4.7 -0.2
v 0.7 4.8 0.2
v 0.8 4.8 0.2
v 0.6 4.8 0.1
v 0.7 4.8 0.1
v 0.6 4.8 -0.1
v 0.7 4.8 -0.1
v 0.7 4.8 -0.2
v 0.8 4.8 -0.2
v 0.6 4.9 0.2
v 0.7 4.9 0.2
v 0.6 4.9 0.1
v 0.7 4.9 0.1
v 0.6 4.9 -0.1
v 0.7 4.9 -0.1
v 0.6 4.9 -0.2
v 0.7 4.9 -0.2
v 0.4 5 0.2
v 0.6 5 0.2
v 0.4 5 -0.2
v 0.6 5 -0.2
v 0.4 6.8 0.2
v 0.6 6.8 0.2
v 0.4 6.8 -0.2
v 0.6 6.8 -0.2
v 0.6 6.9 0.2
v 0.7 6.9 0.2
v 0.6 6.9 0.1
v 0.7 6.9 0.1
v 0.6 6.9 -0.1
v 0.7 6.9 -0.1
v 0.6 6.9 -0.2
v 0.7 6.9 -0.2
v 0.7 7 0.2
v 0.8 7 0.2
v 0.6 7 0.1
v 0.7 7 0.1
v 0.6 7 -0.1
v 0.7 7 -0.1
v 0.7 7 -0.2
v 0.8 7 -0.2
v 0.8 7.1 0.2
v 0.9 7.1 0.2
v 0.8 7.1 0.1
v 0.9 7.1 0.1
v 0.8 7.1 -0.1
v 0.9 7.1 -0.1
v 0.8 7.1 -0.2
v 0.9 7.1 -0.2
v -0.2 7.2 0.4
v 0.2 7.2 0.4
v -0.4 7.2 0.2
v -0.2 7.2 0.2
v 0.2 7.2 0.2
v 0.4 7.2 0.2
v 0.9 7.2 0.2
v 1 7.2 0.2
v 0.8 7.2 0.1
v 0.9 7.2 0.1
v 0.8 7.2 -0.1
v 0.9 7.2 -0.1
v -0.4 7.2 -0.2
v -0.2 7.2 -0.2
v 0.2 7.2 -0.2
v 0.4 7.2 -0.2
v 0.9 7.2 -0.2
v 1 7.2 -0.2
v -0.2 7.2 -0.4
v 0.2 7.2 -0.4
v 1 7.3 0.2
v 1.1 7.3 0.2
v 1 7.3 0.1
v 1.1 7.3 0.1
v 1 7.3 -0.1
v 1.1 7.3 -0.1
v 1 7.3 -0.2
v 1.1 7.3 -0.2
v -0.2 7.4 0.2
v 0.2 7.4 0.2
v 1.1 7.4 0.2
v 1.2 7.4 0.2
v 1 7.4 0.1
v 1.1 7.4 0.1
v 1 7.4 -0.1
v 1.1 7.4 -0.1
v -0.2 7.4 -0.2
v 0.2 7.4 -0.2
v 1.1 7.4 -0.2
v 1.2 7.4 -0.2
v 1.2 7.5 0.2
v 1.3 7.5 0.2
v 1.2 7.5 0.1
v 1.3 7.5 0.1
v 1.2 7.5 -0.1
v 1.3 7.5 -0.1
v 1.2 7.5 -0.2
v 1.3 7.5 -0.2
v 1.3 7.6 0.2
v 1.4 7.6 0.2
v 1.2 7.6 0.1
v 1.3 7.6 0.1
v 1.9 7.6 0.1
v 2 7.6 0.1
v 1.2 7.6 -0.1
v 1.3 7.6 -0.1
v 1.9 7.6 -0.1
v 2 7.6 -0.1
v 1.3 7.6 -0.2
v 1.4 7.6 -0.2
v 1.4 7.7 0.2
v 1.5 7.7 0.2
v 1.7 7.7 0.2
v 1.9 7.7 0.2
v 1.4 7.7 0.1
v 1.5 7.7 0.1
v 1.7 7.7 0.1
v 1.8 7.7 0.1
v 1.4 7.7 -0.1
v 1.5 7.7 -0.1
v 1.7 7.7 -0.1
v 1.8 7.7 -0.1
v 1.4 7.7 -0.2
v 1.5 7.7 -0.2
v 1.7 7.7 -0.2
v 1.9 7.7 -0.2
v 1.5 7.8 0.2
v 1.7 7.8 0.2
v 1.4 7.8 0.1
v 1.5 7.8 0.1
v 1.7 7.8 0.1
v 1.8 7.8 0.1
v 1.4 7.8 -0.1
v 1.5 7.8 -0.1
v 1.7 7.8 -0.1
v 1.8 7.8 -0.1
v 1.5 7.8 -0.2
v 1.7 7.8 -0.2

# faces
f 3/1/1 2/1/1 1/1/1
f 4/1/1 2/1/1 3/1/1
f 9/1/1 6/1/1 5/1/1
f 10/1/1 6/1/1 9/1/1
f 11/1/1 8/1/1 7/1/1
f 12/1/1 8/1/1 11/1/1
f 13/1/1 11/1/1 10/1/1
f 14/1/1 11/1/1 13/1/1
f 18/2/1 16/2/1 15/2/1
f 19/2/1 16/2/1 18/2/1
f 21/2/1 18/2/1 17/2/1
f 21/2/1 20/2/1 19/2/1
f 21/2/1 19/2/1 18/2/1
f 22/2/1 20/2/1 21/2/1
f 25/2/1 24/2/1 23/2/1
f 26/2/1 24/2/1 25/2/1
f 27/2/1 24/2/1 26/2/1
f 28/2/1 24/2/1 27/2/1
f 29/2/1 27/2/1 26/2/1
f 30/2/1 27/2/1 29/2/1
f 35/2/1 32/2/1 31/2/1
f 36/2/1 32/2/1 35/2/1
f 37/2/1 34/2/1 33/2/1
f 38/2/1 34/2/1 37/2/1
f 43/2/1 40/2/1 39/2/1
f 44/2/1 40/2/1 43/2/1
f 45/2/1 42/2/1 41/2/1
f 46/2/1 42/2/1 45/2/1
f 50/2/1 48/2/1 47/2/1
f 51/2/1 48/2/1 50/2/1
f 53/2/1 50/2/1 49/2/1
f 53/2/1 52/2/1 51/2/1
f 53/2/1 51/2/1 50/2/1
f 54/2/1 52/2/1 53/2/1
f 57/2/1 56/2/1 55/2/1
f 58/2/1 56/2/1 57/2/1
f 59/2/1 56/2/1 58/2/1
f 60/2/1 56/2/1 59/2/1
f 61/2/1 59/2/1 58/2/1
f 62/2/1 59/2/1 61/2/1
f 67/2/1 64/2/1 63/2/1
f 68/2/1 64/2/1 67/2/1
f 69/2/1 66/2/1 65/2/1
f 70/2/1 66/2/1 69/2/1
f 75/2/1 72/2/1 71/2/1
f 76/2/1 72/2/1 75/2/1
f 77/2/1 74/2/1 73/2/1
f 78/2/1 74/2/1 77/2/1
f 82/2/1 80/2/1 79/2/1
f 83/2/1 80/2/1 82/2/1
f 85/2/1 82/2/1 81/2/1
f 85/2/1 84/2/1 83/2/1
f 85/2/1 83/2/1 82/2/1
f 86/2/1 84/2/1 85/2/1
f 89/2/1 88/2/1 87/2/1
f 90/2/1 88/2/1 89/2/1
f 91/2/1 88/2/1 90/2/1
f 92/2/1 88/2/1 91/2/1
f 93/2/1 91/2/1 90/2/1
f 94/2/1 91/2/1 93/2/1
f 99/2/1 96/2/1 95/2/1
f 100/2/1 96/2/1 99/2/1
f 101/2/1 98/2/1 97/2/1
f 102/2/1 98/2/1 101/2/1
f 107/2/1 104/2/1 103/2/1
f 108/2/1 104/2/1 107/2/1
f 109/2/1 106/2/1 105/2/1
f 110/2/1 106/2/1 109/2/1
f 114/2/1 112/2/1 111/2/1
f 115/2/1 112/2/1 114/2/1
f 117/2/1 114/2/1 113/2/1
f 117/2/1 116/2/1 115/2/1
f 117/2/1 115/2/1 114/2/1
f 118/2/1 116/2/1 117/2/1
f 121/2/1 120/2/1 119/2/1
f 122/2/1 120/2/1 121/2/1
f 123/2/1 120/2/1 122/2/1
f 124/2/1 120/2/1 123/2/1
f 125/2/1 123/2/1 122/2/1
f 126/2/1 123/2/1 125/2/1
f 131/2/1 128/2/1 127/2/1
f 132/2/1 128/2/1 131/2/1
f 133/2/1 130/2/1 129/2/1
f 134/2/1 130/2/1 133/2/1
f 139/2/1 136/2/1 135/2/1
f 140/2/1 136/2/1 139/2/1
f 141/2/1 138/2/1 137/2/1
f 142/2/1 138/2/1 141/2/1
f 146/2/1 144/2/1 143/2/1
f 147/2/1 144/2/1 146/2/1
f 149/2/1 146/2/1 145/2/1
f 149/2/1 148/2/1 147/2/1
f 149/2/1 147/2/1 146/2/1
f 150/2/1 148/2/1 149/2/1
f 153/2/1 152/2/1 151/2/1
f 154/2/1 152/2/1 153/2/1
f 155/2/1 152/2/1 154/2/1
f 156/2/1 152/2/1 155/2/1
f 157/2/1 155/2/1 154/2/1
f 158/2/1 155/2/1 157/2/1
f 163/2/1 160/2/1 159/2/1
f 164/2/1 160/2/1 163/2/1
f 165/2/1 162/2/1 161/2/1
f 166/2/1 162/2/1 165/2/1
f 171/2/1 168/2/1 167/2/1
f 172/2/1 168/2/1 171/2/1
f 173/2/1 170/2/1 169/2/1
f 174/2/1 170/2/1 173/2/1
f 175/1/2 176/1/2 179/1/2
f 179/1/2 176/1/2 180/1/2
f 177/1/2 178/1/2 181/1/2
f 181/1/2 178/1/2 182/1/2
f 180/1/2 181/1/2 183/1/2
f 183/1/2 181/1/2 184/1/2
f 185/1/2 186/1/2 187/1/2
f 187/1/2 186/1/2 188/1/2
f 189/1/2 190/1/2 191/1/2
f 191/1/2 190/1/2 192/1/2
f 193/2/2 194/2/2 197/2/2
f 197/2/2 194/2/2 198/2/2
f 195/2/2 196/2/2 199/2/2
f 199/2/2 196/2/2 200/2/2
f 201/2/2 202/2/2 203/2/2
f 203/2/2 202/2/2 204/2/2
f 205/2/2 206/2/2 207/2/2
f 207/2/2 206/2/2 208/2/2
f 209/2/2 210/2/2 213/2/2
f 211/2/2 212/2/2 214/2/2
f 209/2/2 213/2/2 215/2/2
f 213/2/2 214/2/2 215/2/2
f 214/2/2 212/2/2 216/2/2
f 215/2/2 214/2/2 216/2/2
f 217/2/2 218/2/2 219/2/2
f 219/2/2 218/2/2 220/2/2
f 223/1/3 222/1/3 221/1/3
f 224/1/3 222/1/3 223/1/3
f 227/1/3 226/1/3 225/1/3
f 228/1/3 226/1/3 227/1/3
f 231/1/3 229/1/3 228/1/3
f 232/1/3 229/1/3 231/1/3
f 233/1/3 231/1/3 230/1/3
f 234/1/3 231/1/3 233/1/3
f 235/1/3 231/1/3 234/1/3
f 236/1/3 231/1/3 235/1/3
f 238/2/3 235/2/3 234/2/3
f 239/2/3 235/2/3 238/2/3
f 242/2/3 238/2/3 237/2/3
f 242/2/3 240/2/3 239/2/3
f 242/2/3 239/2/3 238/2/3
f 243/2/3 240/2/3 242/2/3
f 246/2/3 242/2/3 241/2/3
f 246/2/3 244/2/3 243/2/3
f 246/2/3 243/2/3 242/2/3
f 247/2/3 244/2/3 246/2/3
f 250/2/3 246/2/3 245/2/3
f 250/2/3 248/2/3 247/2/3
f 250/2/3 247/2/3 246/2/3
f 251/2/3 248/2/3 250/2/3
f 254/2/3 250/2/3 249/2/3
f 254/2/3 252/2/3 251/2/3
f 254/2/3 251/2/3 250/2/3
f 255/2/3 252/2/3 254/2/3
f 258/2/3 255/2/3 254/2/3
f 258/2/3 256/2/3 255/2/3
f 258/2/3 254/2/3 253/2/3
f 259/2/3 256/2/3 258/2/3
f 262/2/3 258/2/3 257/2/3
f 262/2/3 260/2/3 259/2/3
f 262/2/3 259/2/3 258/2/3
f 263/2/3 260/2/3 262/2/3
f 266/2/3 263/2/3 262/2/3
f 266/2/3 264/2/3 263/2/3
f 266/2/3 262/2/3 261/2/3
f 267/2/3 264/2/3 266/2/3
f 270/2/3 266/2/3 265/2/3
f 270/2/3 268/2/3 267/2/3
f 270/2/3 267/2/3 266/2/3
f 271/2/3 268/2/3 270/2/3
f 274/2/3 270/2/3 269/2/3
f 274/2/3 272/2/3 271/2/3
f 274/2/3 271/2/3 270/2/3
f 275/2/3 272/2/3 274/2/3
f 277/2/3 274/2/3 273/2/3
f 277/2/3 276/2/3 275/2/3
f 277/2/3 275/2/3 274/2/3
f 278/2/3 276/2/3 277/2/3
f 279/2/3 277/2/3 273/2/3
f 280/2/3 277/2/3 279/2/3
f 281/2/3 277/2/3 280/2/3
f 282/2/3 277/2/3 281/2/3
f 287/2/3 284/2/3 283/2/3
f 288/2/3 284/2/3 287/2/3
f 289/2/3 286/2/3 285/2/3
f 290/2/3 286/2/3 289/2/3
f 295/2/3 292/2/3 291/2/3
f 296/2/3 292/2/3 295/2/3
f 297/2/3 294/2/3 293/2/3
f 298/2/3 294/2/3 297/2/3
f 303/2/3 300/2/3 299/2/3
f 304/2/3 300/2/3 303/2/3
f 305/2/3 302/2/3 301/2/3
f 306/2/3 302/2/3 305/2/3
f 311/2/3 308/2/3 307/2/3
f 312/2/3 308/2/3 311/2/3
f 313/2/3 310/2/3 309/2/3
f 314/2/3 310/2/3 313/2/3
f 319/2/3 316/2/3 315/2/3
f 320/2/3 316/2/3 319/2/3
f 321/2/3 318/2/3 317/2/3
f 322/2/3 318/2/3 321/2/3
f 325/2/3 324/2/3 323/2/3
f 326/2/3 324/2/3 325/2/3
f 329/2/3 328/2/3 327/2/3
f 330/2/3 328/2/3 329/2/3
f 331/2/4 332/2/4 335/2/4
f 335/2/4 332/2/4 336/2/4
f 333/2/4 334/2/4 337/2/4
f 337/2/4 334/2/4 338/2/4
f 339/2/4 340/2/4 343/2/4
f 343/2/4 340/2/4 344/2/4
f 341/2/4 342/2/4 345/2/4
f 345/2/4 342/2/4 346/2/4
f 347/2/4 348/2/4 351/2/4
f 351/2/4 348/2/4 352/2/4
f 349/2/4 350/2/4 353/2/4
f 353/2/4 350/2/4 354/2/4
f 355/2/4 356/2/4 359/2/4
f 359/2/4 356/2/4 360/2/4
f 357/2/4 358/2/4 361/2/4
f 361/2/4 358/2/4 362/2/4
f 363/2/4 364/2/4 367/2/4
f 367/2/4 364/2/4 368/2/4
f 365/2/4 366/2/4 369/2/4
f 369/2/4 366/2/4 370/2/4
f 371/2/4 372/2/4 373/2/4
f 373/2/4 372/2/4 374/2/4
f 375/2/4 376/2/4 377/2/4
f 377/2/4 376/2/4 378/2/4
f 379/1/4 380/1/4 381/1/4
f 381/1/4 380/1/4 382/1/4
f 382/1/4 383/1/4 385/1/4
f 385/1/4 383/1/4 386/1/4
f 384/1/4 385/1/4 387/1/4
f 387/1/4 385/1/4 388/1/4
f 388/1/4 385/1/4 389/1/4
f 389/1/4 385/1/4 390/1/4
f 388/2/4 389/2/4 392/2/4
f 392/2/4 389/2/4 393/2/4
f 391/2/4 392/2/4 396/2/4
f 393/2/4 394/2/4 396/2/4
f 392/2/4 393/2/4 396/2/4
f 396/2/4 394/2/4 397/2/4
f 395/2/4 396/2/4 400/2/4
f 397/2/4 398/2/4 400/2/4
f 396/2/4 397/2/4 400/2/4
f 400/2/4 398/2/4 401/2/4
f 399/2/4 400/2/4 404/2/4
f 401/2/4 402/2/4 404/2/4
f 400/2/4 401/2/4 404/2/4
f 404/2/4 402/2/4 405/2/4
f 403/2/4 404/2/4 408/2/4
f 405/2/4 406/2/4 408/2/4
f 404/2/4 405/2/4 408/2/4
f 408/2/4 406/2/4 409/2/4
f 408/2/4 409/2/4 412/2/4
f 409/2/4 410/2/4 412/2/4
f 407/2/4 408/2/4 412/2/4
f 412/2/4 410/2/4 413/2/4
f 411/2/4 412/2/4 416/2/4
f 413/2/4 414/2/4 416/2/4
f 412/2/4 413/2/4 416/2/4
f 416/2/4 414/2/4 417/2/4
f 416/2/4 417/2/4 420/2/4
f 417/2/4 418/2/4 420/2/4
f 415/2/4 416/2/4 420/2/4
f 420/2/4 418/2/4 421/2/4
f 419/2/4 420/2/4 424/2/4
f 421/2/4 422/2/4 424/2/4
f 420/2/4 421/2/4 424/2/4
f 424/2/4 422/2/4 425/2/4
f 423/2/4 424/2/4 428/2/4
f 425/2/4 426/2/4 428/2/4
f 424/2/4 425/2/4 428/2/4
f 428/2/4 426/2/4 429/2/4
f 427/2/4 428/2/4 431/2/4
f 429/2/4 430/2/4 431/2/4
f 428/2/4 429/2/4 431/2/4
f 431/2/4 430/2/4 432/2/4
f 427/2/4 431/2/4 433/2/4
f 433/2/4 431/2/4 434/2/4
f 434/2/4 431/2/4 435/2/4
f 435/2/4 431/2/4 436/2/4
f 437/1/4 438/1/4 439/1/4
f 439/1/4 438/1/4 440/1/4
f 444/1/5 442/1/5 441/1/5
f 445/1/5 442/1/5 444/1/5
f 447/1/5 444/1/5 443/1/5
f 447/1/5 446/1/5 445/1/5
f 447/1/5 445/1/5 444/1/5
f 448/1/5 446/1/5 447/1/5
f 449/1/5 446/1/5 448/1/5
f 450/1/5 446/1/5 449/1/5
f 451/1/5 449/1/5 448/1/5
f 452/1/5 449/1/5 451/1/5
f 456/2/5 454/2/5 453/2/5
f 457/2/5 456/2/5 455/2/5
f 458/2/5 454/2/5 456/2/5
f 458/2/5 456/2/5 457/2/5
f 459/2/5 454/2/5 458/2/5
f 460/2/5 454/2/5 459/2/5
f 465/2/5 462/2/5 461/2/5
f 466/2/5 462/2/5 465/2/5
f 467/2/5 464/2/5 463/2/5
f 471/2/5 468/2/5 467/2/5
f 471/2/5 467/2/5 463/2/5
f 472/2/5 468/2/5 471/2/5
f 473/2/5 470/2/5 469/2/5
f 474/2/5 470/2/5 473/2/5
f 475/2/5 471/2/5 463/2/5
f 476/2/5 471/2/5 475/2/5
f 480/2/5 478/2/5 477/2/5
f 481/2/5 480/2/5 479/2/5
f 482/2/5 478/2/5 480/2/5
f 482/2/5 480/2/5 481/2/5
f 483/2/5 478/2/5 482/2/5
f 484/2/5 478/2/5 483/2/5
f 487/2/5 486/2/5 485/2/5
f 488/2/5 486/2/5 487/2/5
f 491/2/5 490/2/5 489/2/5
f 492/2/5 490/2/5 491/2/5
f 496/2/5 494/2/5 493/2/5
f 497/2/5 496/2/5 495/2/5
f 498/2/5 494/2/5 496/2/5
f 498/2/5 496/2/5 497/2/5
f 499/2/5 494/2/5 498/2/5
f 500/2/5 494/2/5 499/2/5
f 503/2/5 502/2/5 501/2/5
f 504/2/5 502/2/5 503/2/5
f 507/2/5 506/2/5 505/2/5
f 508/2/5 506/2/5 507/2/5
f 512/2/5 510/2/5 509/2/5
f 513/2/5 512/2/5 511/2/5
f 514/2/5 510/2/5 512/2/5
f 514/2/5 512/2/5 513/2/5
f 515/2/5 510/2/5 514/2/5
f 516/2/5 510/2/5 515/2/5
f 519/2/5 518/2/5 517/2/5
f 520/2/5 518/2/5 519/2/5
f 523/2/5 522/2/5 521/2/5
f 524/2/5 522/2/5 523/2/5
f 528/2/5 526/2/5 525/2/5
f 529/2/5 528/2/5 527/2/5
f 530/2/5 526/2/5 528/2/5
f 530/2/5 528/2/5 529/2/5
f 531/2/5 526/2/5 530/2/5
f 532/2/5 526/2/5 531/2/5
f 535/2/5 534/2/5 533/2/5
f 536/2/5 534/2/5 535/2/5
f 539/2/5 538/2/5 537/2/5
f 540/2/5 538/2/5 539/2/5
f 543/2/5 542/2/5 541/2/5
f 544/2/5 542/2/5 543/2/5
f 545/2/6 546/2/6 547/2/6
f 547/2/6 546/2/6 548/2/6
f 549/2/6 550/2/6 551/2/6
f 551/2/6 550/2/6 552/2/6
f 553/2/6 554/2/6 555/2/6
f 555/2/6 554/2/6 556/2/6
f 557/2/6 558/2/6 560/2/6
f 559/2/6 560/2/6 561/2/6
f 560/2/6 558/2/6 562/2/6
f 561/2/6 560/2/6 562/2/6
f 562/2/6 558/2/6 563/2/6
f 563/2/6 558/2/6 564/2/6
f 565/2/6 566/2/6 567/2/6
f 567/2/6 566/2/6 568/2/6
f 569/2/6 570/2/6 571/2/6
f 571/2/6 570/2/6 572/2/6
f 573/1/6 574/1/6 576/1/6
f 576/1/6 574/1/6 577/1/6
f 579/2/6 580/2/6 582/2/6
f 581/2/6 582/2/6 583/2/6
f 582/2/6 580/2/6 584/2/6
f 583/2/6 582/2/6 584/2/6
f 575/1/6 576/1/6 585/1/6
f 585/1/6 576/1/6 586/1/6
f 577/1/6 578/1/6 587/1/6
f 587/1/6 578/1/6 588/1/6
f 584/2/6 580/2/6 589/2/6
f 589/2/6 580/2/6 590/2/6
f 586/1/6 587/1/6 591/1/6
f 591/1/6 587/1/6 592/1/6
f 593/2/6 594/2/6 595/2/6
f 595/2/6 594/2/6 596/2/6
f 597/2/6 598/2/6 599/2/6
f 599/2/6 598/2/6 600/2/6
f 603/2/6 604/2/6 606/2/6
f 605/2/6 606/2/6 607/2/6
f 606/2/6 604/2/6 608/2/6
f 607/2/6 606/2/6 608/2/6
f 601/1/6 602/1/6 609/1/6
f 609/1/6 602/1/6 610/1/6
f 608/2/6 604/2/6 611/2/6
f 611/2/6 604/2/6 612/2/6
f 613/2/6 614/2/6 615/2/6
f 615/2/6 614/2/6 616/2/6
f 617/2/6 618/2/6 619/2/6
f 619/2/6 618/2/6 620/2/6
f 621/2/6 622/2/6 624/2/6
f 623/2/6 624/2/6 627/2/6
f 624/2/6 622/2/6 628/2/6
f 627/2/6 624/2/6 628/2/6
f 625/2/6 626/2/6 629/2/6
f 629/2/6 626/2/6 630/2/6
f 628/2/6 622/2/6 631/2/6
f 631/2/6 622/2/6 632/2/6
f 633/2/6 634/2/6 637/2/6
f 637/2/6 634/2/6 638/2/6
f 635/2/6 636/2/6 639/2/6
f 639/2/6 636/2/6 640/2/6
f 640/2/6 636/2/6 644/2/6
f 641/2/6 642/2/6 645/2/6
f 645/2/6 642/2/6 646/2/6
f 643/2/6 644/2/6 647/2/6
f 644/2/6 636/2/6 648/2/6
f 647/2/6 644/2/6 648/2/6
f 649/2/6 650/2/6 652/2/6
f 652/2/6 650/2/6 653/2/6
f 651/2/6 652/2/6 655/2/6
f 653/2/6 654/2/6 655/2/6
f 652/2/6 653/2/6 655/2/6
f 655/2/6 654/2/6 656/2/6
f 656/2/6 654/2/6 657/2/6
f 657/2/6 654/2/6 658/2/6
f 656/2/6 657/2/6 659/2/6
f 659/2/6 657/2/6 660/2/6
