# MagicaVoxel @ Ephtracy

# group
o 

# material
mtllib Grass.mtl
usemtl palette

# normals
vn -1 0 0
vn 1 0 0
vn 0 0 1
vn 0 0 -1
vn 0 -1 0
vn 0 1 0

# texcoords
vt 0.767578 0.5
vt 0.771484 0.5

# verts
v -0.7 0 0.1
v -0.7 0 0
v -0.7 0.1 0.1
v -0.7 0.1 0
v -0.7 0.2 0.1
v -0.7 0.2 0
v -0.7 0.3 0.1
v -0.7 0.3 0
v -0.6 0 -0.2
v -0.6 0 -0.3
v -0.6 0.4 -0.2
v -0.6 0.4 -0.3
v -0.5 0 0.3
v -0.5 0 0.2
v -0.5 0.1 0.3
v -0.5 0.1 0.2
v -0.5 0.2 0.3
v -0.5 0.2 0.2
v -0.5 0.4 0.3
v -0.5 0.4 0.2
v -0.4 0 0.4
v -0.4 0 0.3
v -0.4 0 0.1
v -0.4 0 0
v -0.4 0 -0.1
v -0.4 0 -0.2
v -0.4 0.1 0.3
v -0.4 0.2 0.4
v -0.4 0.2 0.3
v -0.4 0.2 -0.1
v -0.4 0.2 -0.2
v -0.4 0.3 0.1
v -0.4 0.3 0
v -0.4 0.3 -0.1
v -0.4 0.3 -0.2
v -0.4 0.5 -0.1
v -0.4 0.5 -0.2
v -0.4 0.6 -0.1
v -0.4 0.6 -0.2
v -0.4 0.7 0.1
v -0.4 0.7 0
v -0.4 0.7 -0.1
v -0.4 0.7 -0.2
v -0.4 0.8 0.1
v -0.4 0.8 0
v -0.4 0.8 -0.1
v -0.4 0.8 -0.2
v -0.3 0 -0.4
v -0.3 0 -0.5
v -0.3 0.3 -0.4
v -0.3 0.3 -0.5
v -0.2 0 0.5
v -0.2 0 0.4
v -0.2 0 0.1
v -0.2 0 0
v -0.2 0 -0.1
v -0.2 0 -0.2
v -0.2 0.2 0.5
v -0.2 0.2 0.4
v -0.2 0.2 0.1
v -0.2 0.2 0
v -0.2 0.2 -0.1
v -0.2 0.2 -0.2
v -0.2 0.3 0.1
v -0.2 0.3 0
v -0.2 0.3 -0.1
v -0.2 0.3 -0.2
v -0.2 0.4 0.1
v -0.2 0.4 0
v -0.2 0.4 -0.1
v -0.2 0.4 -0.2
v -0.2 0.5 0.5
v -0.2 0.5 0.4
v -0.2 0.8 -0.1
v -0.2 0.8 -0.2
v -0.2 0.9 -0.1
v -0.2 0.9 -0.2
v -0.1 0 0.3
v -0.1 0 0.2
v -0.1 0 -0.4
v -0.1 0 -0.5
v -0.1 0.1 0.3
v -0.1 0.1 0.2
v -0.1 0.3 -0.4
v -0.1 0.3 -0.5
v -0.1 0.4 0.3
v -0.1 0.4 0.2
v -0.1 0.5 -0.4
v -0.1 0.5 -0.5
v -0.1 0.6 -0.4
v -0.1 0.6 -0.5
v -0.1 0.7 0.3
v -0.1 0.7 0.2
v -0.1 0.8 0.3
v -0.1 0.8 0.2
v 5.96046e-008 0 0.5
v 5.96046e-008 0 0.4
v 5.96046e-008 0 -0.1
v 5.96046e-008 0 -0.2
v 5.96046e-008 0.1 0.5
v 5.96046e-008 0.1 0.4
v 5.96046e-008 0.2 0.5
v 5.96046e-008 0.2 0.4
v 5.96046e-008 0.2 -0.1
v 5.96046e-008 0.2 -0.2
v 5.96046e-008 0.5 -0.1
v 5.96046e-008 0.5 -0.2
v 5.96046e-008 0.6 -0.1
v 5.96046e-008 0.6 -0.2
v 0.1 0 -0.3
v 0.1 0 -0.4
v 0.1 0.1 -0.3
v 0.1 0.1 -0.4
v 0.1 0.2 -0.3
v 0.1 0.2 -0.4
v 0.2 0 0.3
v 0.2 0 0.2
v 0.2 0 0
v 0.2 0 -0.1
v 0.2 0.1 0
v 0.2 0.1 -0.1
v 0.2 0.3 0
v 0.2 0.3 -0.1
v 0.2 0.4 0.3
v 0.2 0.4 0.2
v 0.2 0.4 0
v 0.2 0.4 -0.1
v -0.6 0 0.1
v -0.6 0 0
v -0.6 0.1 0.1
v -0.6 0.1 0
v -0.6 0.2 0.1
v -0.6 0.2 0
v -0.6 0.3 0.1
v -0.6 0.3 0
v -0.5 0 -0.2
v -0.5 0 -0.3
v -0.5 0.4 -0.2
v -0.5 0.4 -0.3
v -0.4 0 0.3
v -0.4 0 0.2
v -0.4 0.1 0.3
v -0.4 0.1 0.2
v -0.4 0.2 0.3
v -0.4 0.2 0.2
v -0.4 0.4 0.3
v -0.4 0.4 0.2
v -0.3 0 0.4
v -0.3 0 0.3
v -0.3 0 0.1
v -0.3 0 0
v -0.3 0 -0.1
v -0.3 0 -0.2
v -0.3 0.2 0.4
v -0.3 0.2 0.3
v -0.3 0.2 -0.1
v -0.3 0.2 -0.2
v -0.3 0.3 0.1
v -0.3 0.3 0
v -0.3 0.3 -0.1
v -0.3 0.3 -0.2
v -0.3 0.5 -0.1
v -0.3 0.5 -0.2
v -0.3 0.6 -0.1
v -0.3 0.6 -0.2
v -0.3 0.7 0.1
v -0.3 0.7 0
v -0.3 0.7 -0.1
v -0.3 0.7 -0.2
v -0.3 0.8 0.1
v -0.3 0.8 0
v -0.3 0.8 -0.1
v -0.3 0.8 -0.2
v -0.2 0 -0.4
v -0.2 0 -0.5
v -0.2 0.3 -0.4
v -0.2 0.3 -0.5
v -0.1 0 0.5
v -0.1 0 0.4
v -0.1 0 0.1
v -0.1 0 0
v -0.1 0 -0.1
v -0.1 0 -0.2
v -0.1 0.2 0.5
v -0.1 0.2 0.4
v -0.1 0.2 0.1
v -0.1 0.2 0
v -0.1 0.2 -0.1
v -0.1 0.2 -0.2
v -0.1 0.3 0.1
v -0.1 0.3 0
v -0.1 0.3 -0.1
v -0.1 0.3 -0.2
v -0.1 0.4 0.1
v -0.1 0.4 0
v -0.1 0.4 -0.1
v -0.1 0.4 -0.2
v -0.1 0.5 0.5
v -0.1 0.5 0.4
v -0.1 0.8 -0.1
v -0.1 0.8 -0.2
v -0.1 0.9 -0.1
v -0.1 0.9 -0.2
v 5.96046e-008 0 0.3
v 5.96046e-008 0 0.2
v 5.96046e-008 0 -0.4
v 5.96046e-008 0 -0.5
v 5.96046e-008 0.1 0.3
v 5.96046e-008 0.1 0.2
v 5.96046e-008 0.3 -0.4
v 5.96046e-008 0.3 -0.5
v 5.96046e-008 0.4 0.3
v 5.96046e-008 0.4 0.2
v 5.96046e-008 0.5 -0.4
v 5.96046e-008 0.5 -0.5
v 5.96046e-008 0.6 -0.4
v 5.96046e-008 0.6 -0.5
v 5.96046e-008 0.7 0.3
v 5.96046e-008 0.7 0.2
v 5.96046e-008 0.8 0.3
v 5.96046e-008 0.8 0.2
v 0.1 0 0.5
v 0.1 0 0.4
v 0.1 0 -0.1
v 0.1 0 -0.2
v 0.1 0.1 0.5
v 0.1 0.1 0.4
v 0.1 0.2 0.5
v 0.1 0.2 0.4
v 0.1 0.2 -0.1
v 0.1 0.2 -0.2
v 0.1 0.5 -0.1
v 0.1 0.5 -0.2
v 0.1 0.6 -0.1
v 0.1 0.6 -0.2
v 0.2 0 -0.3
v 0.2 0 -0.4
v 0.2 0.1 -0.3
v 0.2 0.1 -0.4
v 0.2 0.2 -0.3
v 0.2 0.2 -0.4
v 0.3 0 0.3
v 0.3 0 0.2
v 0.3 0 0
v 0.3 0 -0.1
v 0.3 0.1 0
v 0.3 0.1 -0.1
v 0.3 0.3 0
v 0.3 0.3 -0.1
v 0.3 0.4 0.3
v 0.3 0.4 0.2
v 0.3 0.4 0
v 0.3 0.4 -0.1
v -0.2 0 0.5
v -0.2 0.2 0.5
v -0.2 0.5 0.5
v -0.1 0 0.5
v -0.1 0.2 0.5
v -0.1 0.5 0.5
v 5.96046e-008 0 0.5
v 5.96046e-008 0.1 0.5
v 5.96046e-008 0.2 0.5
v 0.1 0 0.5
v 0.1 0.1 0.5
v 0.1 0.2 0.5
v -0.4 0 0.4
v -0.4 0.2 0.4
v -0.3 0 0.4
v -0.3 0.2 0.4
v -0.5 0 0.3
v -0.5 0.1 0.3
v -0.5 0.2 0.3
v -0.5 0.4 0.3
v -0.4 0 0.3
v -0.4 0.1 0.3
v -0.4 0.2 0.3
v -0.4 0.4 0.3
v -0.1 0 0.3
v -0.1 0.1 0.3
v -0.1 0.4 0.3
v -0.1 0.7 0.3
v -0.1 0.8 0.3
v 5.96046e-008 0 0.3
v 5.96046e-008 0.1 0.3
v 5.96046e-008 0.4 0.3
v 5.96046e-008 0.7 0.3
v 5.96046e-008 0.8 0.3
v 0.2 0 0.3
v 0.2 0.4 0.3
v 0.3 0 0.3
v 0.3 0.4 0.3
v -0.7 0 0.1
v -0.7 0.1 0.1
v -0.7 0.2 0.1
v -0.7 0.3 0.1
v -0.6 0 0.1
v -0.6 0.1 0.1
v -0.6 0.2 0.1
v -0.6 0.3 0.1
v -0.4 0 0.1
v -0.4 0.3 0.1
v -0.4 0.7 0.1
v -0.4 0.8 0.1
v -0.3 0 0.1
v -0.3 0.3 0.1
v -0.3 0.7 0.1
v -0.3 0.8 0.1
v -0.2 0 0.1
v -0.2 0.2 0.1
v -0.2 0.3 0.1
v -0.2 0.4 0.1
v -0.1 0 0.1
v -0.1 0.2 0.1
v -0.1 0.3 0.1
v -0.1 0.4 0.1
v 0.2 0 0
v 0.2 0.1 0
v 0.2 0.3 0
v 0.2 0.4 0
v 0.3 0 0
v 0.3 0.1 0
v 0.3 0.3 0
v 0.3 0.4 0
v -0.4 0 -0.1
v -0.4 0.2 -0.1
v -0.4 0.3 -0.1
v -0.4 0.5 -0.1
v -0.4 0.6 -0.1
v -0.4 0.7 -0.1
v -0.4 0.8 -0.1
v -0.3 0 -0.1
v -0.3 0.2 -0.1
v -0.3 0.3 -0.1
v -0.3 0.5 -0.1
v -0.3 0.6 -0.1
v -0.3 0.7 -0.1
v -0.3 0.8 -0.1
v -0.2 0 -0.1
v -0.2 0.2 -0.1
v -0.2 0.3 -0.1
v -0.2 0.4 -0.1
v -0.2 0.8 -0.1
v -0.2 0.9 -0.1
v -0.1 0 -0.1
v -0.1 0.2 -0.1
v -0.1 0.3 -0.1
v -0.1 0.4 -0.1
v -0.1 0.8 -0.1
v -0.1 0.9 -0.1
v 5.96046e-008 0 -0.1
v 5.96046e-008 0.2 -0.1
v 5.96046e-008 0.5 -0.1
v 5.96046e-008 0.6 -0.1
v 0.1 0 -0.1
v 0.1 0.2 -0.1
v 0.1 0.5 -0.1
v 0.1 0.6 -0.1
v -0.6 0 -0.2
v -0.6 0.4 -0.2
v -0.5 0 -0.2
v -0.5 0.4 -0.2
v 0.1 0 -0.3
v 0.1 0.1 -0.3
v 0.1 0.2 -0.3
v 0.2 0 -0.3
v 0.2 0.1 -0.3
v 0.2 0.2 -0.3
v -0.3 0 -0.4
v -0.3 0.3 -0.4
v -0.2 0 -0.4
v -0.2 0.3 -0.4
v -0.1 0 -0.4
v -0.1 0.3 -0.4
v -0.1 0.5 -0.4
v -0.1 0.6 -0.4
v 5.96046e-008 0 -0.4
v 5.96046e-008 0.3 -0.4
v 5.96046e-008 0.5 -0.4
v 5.96046e-008 0.6 -0.4
v -0.2 0 0.4
v -0.2 0.2 0.4
v -0.2 0.5 0.4
v -0.1 0 0.4
v -0.1 0.2 0.4
v -0.1 0.5 0.4
v 5.96046e-008 0 0.4
v 5.96046e-008 0.1 0.4
v 5.96046e-008 0.2 0.4
v 0.1 0 0.4
v 0.1 0.1 0.4
v 0.1 0.2 0.4
v -0.4 0 0.3
v -0.4 0.1 0.3
v -0.4 0.2 0.3
v -0.3 0 0.3
v -0.3 0.2 0.3
v -0.5 0 0.2
v -0.5 0.1 0.2
v -0.5 0.2 0.2
v -0.5 0.4 0.2
v -0.4 0 0.2
v -0.4 0.1 0.2
v -0.4 0.2 0.2
v -0.4 0.4 0.2
v -0.1 0 0.2
v -0.1 0.1 0.2
v -0.1 0.4 0.2
v -0.1 0.7 0.2
v -0.1 0.8 0.2
v 5.96046e-008 0 0.2
v 5.96046e-008 0.1 0.2
v 5.96046e-008 0.4 0.2
v 5.96046e-008 0.7 0.2
v 5.96046e-008 0.8 0.2
v 0.2 0 0.2
v 0.2 0.4 0.2
v 0.3 0 0.2
v 0.3 0.4 0.2
v -0.7 0 0
v -0.7 0.1 0
v -0.7 0.2 0
v -0.7 0.3 0
v -0.6 0 0
v -0.6 0.1 0
v -0.6 0.2 0
v -0.6 0.3 0
v -0.4 0 0
v -0.4 0.3 0
v -0.4 0.7 0
v -0.4 0.8 0
v -0.3 0 0
v -0.3 0.3 0
v -0.3 0.7 0
v -0.3 0.8 0
v -0.2 0 0
v -0.2 0.2 0
v -0.2 0.3 0
v -0.2 0.4 0
v -0.1 0 0
v -0.1 0.2 0
v -0.1 0.3 0
v -0.1 0.4 0
v 0.2 0 -0.1
v 0.2 0.1 -0.1
v 0.2 0.3 -0.1
v 0.2 0.4 -0.1
v 0.3 0 -0.1
v 0.3 0.1 -0.1
v 0.3 0.3 -0.1
v 0.3 0.4 -0.1
v -0.4 0 -0.2
v -0.4 0.2 -0.2
v -0.4 0.3 -0.2
v -0.4 0.5 -0.2
v -0.4 0.6 -0.2
v -0.4 0.7 -0.2
v -0.4 0.8 -0.2
v -0.3 0 -0.2
v -0.3 0.2 -0.2
v -0.3 0.3 -0.2
v -0.3 0.5 -0.2
v -0.3 0.6 -0.2
v -0.3 0.7 -0.2
v -0.3 0.8 -0.2
v -0.2 0 -0.2
v -0.2 0.2 -0.2
v -0.2 0.3 -0.2
v -0.2 0.4 -0.2
v -0.2 0.8 -0.2
v -0.2 0.9 -0.2
v -0.1 0 -0.2
v -0.1 0.2 -0.2
v -0.1 0.3 -0.2
v -0.1 0.4 -0.2
v -0.1 0.8 -0.2
v -0.1 0.9 -0.2
v 5.96046e-008 0 -0.2
v 5.96046e-008 0.2 -0.2
v 5.96046e-008 0.5 -0.2
v 5.96046e-008 0.6 -0.2
v 0.1 0 -0.2
v 0.1 0.2 -0.2
v 0.1 0.5 -0.2
v 0.1 0.6 -0.2
v -0.6 0 -0.3
v -0.6 0.4 -0.3
v -0.5 0 -0.3
v -0.5 0.4 -0.3
v 0.1 0 -0.4
v 0.1 0.1 -0.4
v 0.1 0.2 -0.4
v 0.2 0 -0.4
v 0.2 0.1 -0.4
v 0.2 0.2 -0.4
v -0.3 0 -0.5
v -0.3 0.3 -0.5
v -0.2 0 -0.5
v -0.2 0.3 -0.5
v -0.1 0 -0.5
v -0.1 0.3 -0.5
v -0.1 0.5 -0.5
v -0.1 0.6 -0.5
v 5.96046e-008 0 -0.5
v 5.96046e-008 0.3 -0.5
v 5.96046e-008 0.5 -0.5
v 5.96046e-008 0.6 -0.5
v -0.2 0 0.5
v -0.1 0 0.5
v 5.96046e-008 0 0.5
v 0.1 0 0.5
v -0.4 0 0.4
v -0.3 0 0.4
v -0.2 0 0.4
v -0.1 0 0.4
v 5.96046e-008 0 0.4
v 0.1 0 0.4
v -0.5 0 0.3
v -0.4 0 0.3
v -0.3 0 0.3
v -0.1 0 0.3
v 5.96046e-008 0 0.3
v 0.2 0 0.3
v 0.3 0 0.3
v -0.5 0 0.2
v -0.4 0 0.2
v -0.1 0 0.2
v 5.96046e-008 0 0.2
v 0.2 0 0.2
v 0.3 0 0.2
v -0.7 0 0.1
v -0.6 0 0.1
v -0.4 0 0.1
v -0.3 0 0.1
v -0.2 0 0.1
v -0.1 0 0.1
v -0.7 0 0
v -0.6 0 0
v -0.4 0 0
v -0.3 0 0
v -0.2 0 0
v -0.1 0 0
v 0.2 0 0
v 0.3 0 0
v -0.4 0 -0.1
v -0.3 0 -0.1
v -0.2 0 -0.1
v -0.1 0 -0.1
v 5.96046e-008 0 -0.1
v 0.1 0 -0.1
v 0.2 0 -0.1
v 0.3 0 -0.1
v -0.6 0 -0.2
v -0.5 0 -0.2
v -0.4 0 -0.2
v -0.3 0 -0.2
v -0.2 0 -0.2
v -0.1 0 -0.2
v 5.96046e-008 0 -0.2
v 0.1 0 -0.2
v -0.6 0 -0.3
v -0.5 0 -0.3
v 0.1 0 -0.3
v 0.2 0 -0.3
v -0.3 0 -0.4
v -0.2 0 -0.4
v -0.1 0 -0.4
v 5.96046e-008 0 -0.4
v 0.1 0 -0.4
v 0.2 0 -0.4
v -0.3 0 -0.5
v -0.2 0 -0.5
v -0.1 0 -0.5
v 5.96046e-008 0 -0.5
v 5.96046e-008 0.2 0.5
v 0.1 0.2 0.5
v -0.4 0.2 0.4
v -0.3 0.2 0.4
v 5.96046e-008 0.2 0.4
v 0.1 0.2 0.4
v -0.4 0.2 0.3
v -0.3 0.2 0.3
v 0.1 0.2 -0.3
v 0.2 0.2 -0.3
v 0.1 0.2 -0.4
v 0.2 0.2 -0.4
v -0.7 0.3 0.1
v -0.6 0.3 0.1
v -0.7 0.3 0
v -0.6 0.3 0
v -0.3 0.3 -0.4
v -0.2 0.3 -0.4
v -0.3 0.3 -0.5
v -0.2 0.3 -0.5
v -0.5 0.4 0.3
v -0.4 0.4 0.3
v 0.2 0.4 0.3
v 0.3 0.4 0.3
v -0.5 0.4 0.2
v -0.4 0.4 0.2
v 0.2 0.4 0.2
v 0.3 0.4 0.2
v -0.2 0.4 0.1
v -0.1 0.4 0.1
v -0.2 0.4 0
v -0.1 0.4 0
v 0.2 0.4 0
v 0.3 0.4 0
v 0.2 0.4 -0.1
v 0.3 0.4 -0.1
v -0.6 0.4 -0.2
v -0.5 0.4 -0.2
v -0.6 0.4 -0.3
v -0.5 0.4 -0.3
v -0.2 0.5 0.5
v -0.1 0.5 0.5
v -0.2 0.5 0.4
v -0.1 0.5 0.4
v 5.96046e-008 0.6 -0.1
v 0.1 0.6 -0.1
v 5.96046e-008 0.6 -0.2
v 0.1 0.6 -0.2
v -0.1 0.6 -0.4
v 5.96046e-008 0.6 -0.4
v -0.1 0.6 -0.5
v 5.96046e-008 0.6 -0.5
v -0.1 0.8 0.3
v 5.96046e-008 0.8 0.3
v -0.1 0.8 0.2
v 5.96046e-008 0.8 0.2
v -0.4 0.8 0.1
v -0.3 0.8 0.1
v -0.4 0.8 0
v -0.3 0.8 0
v -0.4 0.8 -0.1
v -0.3 0.8 -0.1
v -0.4 0.8 -0.2
v -0.3 0.8 -0.2
v -0.2 0.9 -0.1
v -0.1 0.9 -0.1
v -0.2 0.9 -0.2
v -0.1 0.9 -0.2

# faces
f 3/2/1 2/2/1 1/2/1
f 4/2/1 2/2/1 3/2/1
f 5/1/1 4/1/1 3/1/1
f 6/1/1 4/1/1 5/1/1
f 7/2/1 6/2/1 5/2/1
f 8/2/1 6/2/1 7/2/1
f 11/2/1 10/2/1 9/2/1
f 12/2/1 10/2/1 11/2/1
f 15/2/1 14/2/1 13/2/1
f 16/2/1 14/2/1 15/2/1
f 17/1/1 16/1/1 15/1/1
f 18/1/1 16/1/1 17/1/1
f 19/2/1 18/2/1 17/2/1
f 20/2/1 18/2/1 19/2/1
f 27/2/1 22/2/1 21/2/1
f 28/2/1 27/2/1 21/2/1
f 29/2/1 27/2/1 28/2/1
f 30/1/1 26/1/1 25/1/1
f 31/1/1 26/1/1 30/1/1
f 32/1/1 24/1/1 23/1/1
f 33/1/1 24/1/1 32/1/1
f 34/2/1 31/2/1 30/2/1
f 35/2/1 31/2/1 34/2/1
f 36/1/1 35/1/1 34/1/1
f 37/1/1 35/1/1 36/1/1
f 38/2/1 37/2/1 36/2/1
f 39/2/1 37/2/1 38/2/1
f 40/2/1 33/2/1 32/2/1
f 41/2/1 33/2/1 40/2/1
f 42/1/1 39/1/1 38/1/1
f 43/1/1 39/1/1 42/1/1
f 44/1/1 41/1/1 40/1/1
f 45/1/1 41/1/1 44/1/1
f 46/2/1 43/2/1 42/2/1
f 47/2/1 43/2/1 46/2/1
f 50/2/1 49/2/1 48/2/1
f 51/2/1 49/2/1 50/2/1
f 58/1/1 53/1/1 52/1/1
f 59/1/1 53/1/1 58/1/1
f 60/2/1 55/2/1 54/2/1
f 61/2/1 55/2/1 60/2/1
f 62/2/1 57/2/1 56/2/1
f 63/2/1 57/2/1 62/2/1
f 64/1/1 61/1/1 60/1/1
f 65/1/1 61/1/1 64/1/1
f 66/1/1 63/1/1 62/1/1
f 67/1/1 63/1/1 66/1/1
f 68/2/1 65/2/1 64/2/1
f 69/2/1 65/2/1 68/2/1
f 70/2/1 67/2/1 66/2/1
f 71/2/1 67/2/1 70/2/1
f 72/2/1 59/2/1 58/2/1
f 73/2/1 59/2/1 72/2/1
f 74/1/1 71/1/1 70/1/1
f 75/1/1 71/1/1 74/1/1
f 76/2/1 75/2/1 74/2/1
f 77/2/1 75/2/1 76/2/1
f 82/2/1 79/2/1 78/2/1
f 83/2/1 79/2/1 82/2/1
f 84/2/1 81/2/1 80/2/1
f 85/2/1 81/2/1 84/2/1
f 86/1/1 83/1/1 82/1/1
f 87/1/1 83/1/1 86/1/1
f 88/1/1 85/1/1 84/1/1
f 89/1/1 85/1/1 88/1/1
f 90/2/1 89/2/1 88/2/1
f 91/2/1 89/2/1 90/2/1
f 92/2/1 87/2/1 86/2/1
f 93/2/1 87/2/1 92/2/1
f 94/1/1 93/1/1 92/1/1
f 95/1/1 93/1/1 94/1/1
f 100/2/1 97/2/1 96/2/1
f 101/2/1 97/2/1 100/2/1
f 102/1/1 101/1/1 100/1/1
f 103/1/1 101/1/1 102/1/1
f 104/2/1 99/2/1 98/2/1
f 105/2/1 99/2/1 104/2/1
f 106/1/1 105/1/1 104/1/1
f 107/1/1 105/1/1 106/1/1
f 108/2/1 107/2/1 106/2/1
f 109/2/1 107/2/1 108/2/1
f 112/1/1 111/1/1 110/1/1
f 113/1/1 111/1/1 112/1/1
f 114/2/1 113/2/1 112/2/1
f 115/2/1 113/2/1 114/2/1
f 120/1/1 119/1/1 118/1/1
f 121/1/1 119/1/1 120/1/1
f 122/2/1 121/2/1 120/2/1
f 123/2/1 121/2/1 122/2/1
f 124/1/1 117/1/1 116/1/1
f 125/1/1 117/1/1 124/1/1
f 126/1/1 123/1/1 122/1/1
f 127/1/1 123/1/1 126/1/1
f 128/2/2 129/2/2 130/2/2
f 130/2/2 129/2/2 131/2/2
f 130/1/2 131/1/2 132/1/2
f 132/1/2 131/1/2 133/1/2
f 132/2/2 133/2/2 134/2/2
f 134/2/2 133/2/2 135/2/2
f 136/2/2 137/2/2 138/2/2
f 138/2/2 137/2/2 139/2/2
f 140/2/2 141/2/2 142/2/2
f 142/2/2 141/2/2 143/2/2
f 142/1/2 143/1/2 144/1/2
f 144/1/2 143/1/2 145/1/2
f 144/2/2 145/2/2 146/2/2
f 146/2/2 145/2/2 147/2/2
f 148/2/2 149/2/2 154/2/2
f 154/2/2 149/2/2 155/2/2
f 152/1/2 153/1/2 156/1/2
f 156/1/2 153/1/2 157/1/2
f 150/1/2 151/1/2 158/1/2
f 158/1/2 151/1/2 159/1/2
f 156/2/2 157/2/2 160/2/2
f 160/2/2 157/2/2 161/2/2
f 160/1/2 161/1/2 162/1/2
f 162/1/2 161/1/2 163/1/2
f 162/2/2 163/2/2 164/2/2
f 164/2/2 163/2/2 165/2/2
f 158/2/2 159/2/2 166/2/2
f 166/2/2 159/2/2 167/2/2
f 164/1/2 165/1/2 168/1/2
f 168/1/2 165/1/2 169/1/2
f 166/1/2 167/1/2 170/1/2
f 170/1/2 167/1/2 171/1/2
f 168/2/2 169/2/2 172/2/2
f 172/2/2 169/2/2 173/2/2
f 174/2/2 175/2/2 176/2/2
f 176/2/2 175/2/2 177/2/2
f 178/1/2 179/1/2 184/1/2
f 184/1/2 179/1/2 185/1/2
f 180/2/2 181/2/2 186/2/2
f 186/2/2 181/2/2 187/2/2
f 182/2/2 183/2/2 188/2/2
f 188/2/2 183/2/2 189/2/2
f 186/1/2 187/1/2 190/1/2
f 190/1/2 187/1/2 191/1/2
f 188/1/2 189/1/2 192/1/2
f 192/1/2 189/1/2 193/1/2
f 190/2/2 191/2/2 194/2/2
f 194/2/2 191/2/2 195/2/2
f 192/2/2 193/2/2 196/2/2
f 196/2/2 193/2/2 197/2/2
f 184/2/2 185/2/2 198/2/2
f 198/2/2 185/2/2 199/2/2
f 196/1/2 197/1/2 200/1/2
f 200/1/2 197/1/2 201/1/2
f 200/2/2 201/2/2 202/2/2
f 202/2/2 201/2/2 203/2/2
f 204/2/2 205/2/2 208/2/2
f 208/2/2 205/2/2 209/2/2
f 206/2/2 207/2/2 210/2/2
f 210/2/2 207/2/2 211/2/2
f 208/1/2 209/1/2 212/1/2
f 212/1/2 209/1/2 213/1/2
f 210/1/2 211/1/2 214/1/2
f 214/1/2 211/1/2 215/1/2
f 214/2/2 215/2/2 216/2/2
f 216/2/2 215/2/2 217/2/2
f 212/2/2 213/2/2 218/2/2
f 218/2/2 213/2/2 219/2/2
f 218/1/2 219/1/2 220/1/2
f 220/1/2 219/1/2 221/1/2
f 222/2/2 223/2/2 226/2/2
f 226/2/2 223/2/2 227/2/2
f 226/1/2 227/1/2 228/1/2
f 228/1/2 227/1/2 229/1/2
f 224/2/2 225/2/2 230/2/2
f 230/2/2 225/2/2 231/2/2
f 230/1/2 231/1/2 232/1/2
f 232/1/2 231/1/2 233/1/2
f 232/2/2 233/2/2 234/2/2
f 234/2/2 233/2/2 235/2/2
f 236/1/2 237/1/2 238/1/2
f 238/1/2 237/1/2 239/1/2
f 238/2/2 239/2/2 240/2/2
f 240/2/2 239/2/2 241/2/2
f 244/1/2 245/1/2 246/1/2
f 246/1/2 245/1/2 247/1/2
f 246/2/2 247/2/2 248/2/2
f 248/2/2 247/2/2 249/2/2
f 242/1/2 243/1/2 250/1/2
f 250/1/2 243/1/2 251/1/2
f 248/1/2 249/1/2 252/1/2
f 252/1/2 249/1/2 253/1/2
f 257/1/3 255/1/3 254/1/3
f 258/2/3 256/2/3 255/2/3
f 258/1/3 255/1/3 257/1/3
f 259/2/3 256/2/3 258/2/3
f 263/2/3 261/2/3 260/2/3
f 264/1/3 262/1/3 261/1/3
f 264/2/3 261/2/3 263/2/3
f 265/1/3 262/1/3 264/1/3
f 268/2/3 267/2/3 266/2/3
f 269/2/3 267/2/3 268/2/3
f 274/2/3 271/2/3 270/2/3
f 275/1/3 272/1/3 271/1/3
f 275/2/3 271/2/3 274/2/3
f 276/2/3 273/2/3 272/2/3
f 276/1/3 272/1/3 275/1/3
f 277/2/3 273/2/3 276/2/3
f 283/2/3 279/2/3 278/2/3
f 284/1/3 280/1/3 279/1/3
f 284/2/3 279/2/3 283/2/3
f 285/2/3 281/2/3 280/2/3
f 285/1/3 280/1/3 284/1/3
f 286/1/3 282/1/3 281/1/3
f 286/2/3 281/2/3 285/2/3
f 287/1/3 282/1/3 286/1/3
f 290/1/3 289/1/3 288/1/3
f 291/1/3 289/1/3 290/1/3
f 296/2/3 293/2/3 292/2/3
f 297/1/3 294/1/3 293/1/3
f 297/2/3 293/2/3 296/2/3
f 298/2/3 295/2/3 294/2/3
f 298/1/3 294/1/3 297/1/3
f 299/2/3 295/2/3 298/2/3
f 304/1/3 301/1/3 300/1/3
f 305/2/3 302/2/3 301/2/3
f 305/1/3 301/1/3 304/1/3
f 306/1/3 303/1/3 302/1/3
f 306/2/3 302/2/3 305/2/3
f 307/1/3 303/1/3 306/1/3
f 312/2/3 309/2/3 308/2/3
f 313/1/3 310/1/3 309/1/3
f 313/2/3 309/2/3 312/2/3
f 314/2/3 311/2/3 310/2/3
f 314/1/3 310/1/3 313/1/3
f 315/2/3 311/2/3 314/2/3
f 320/1/3 317/1/3 316/1/3
f 321/2/3 318/2/3 317/2/3
f 321/1/3 317/1/3 320/1/3
f 322/1/3 319/1/3 318/1/3
f 322/2/3 318/2/3 321/2/3
f 323/1/3 319/1/3 322/1/3
f 331/1/3 325/1/3 324/1/3
f 332/2/3 326/2/3 325/2/3
f 332/1/3 325/1/3 331/1/3
f 333/1/3 327/1/3 326/1/3
f 333/2/3 326/2/3 332/2/3
f 334/2/3 328/2/3 327/2/3
f 334/1/3 327/1/3 333/1/3
f 335/1/3 329/1/3 328/1/3
f 335/2/3 328/2/3 334/2/3
f 336/2/3 330/2/3 329/2/3
f 336/1/3 329/1/3 335/1/3
f 337/2/3 330/2/3 336/2/3
f 344/2/3 339/2/3 338/2/3
f 345/1/3 340/1/3 339/1/3
f 345/2/3 339/2/3 344/2/3
f 346/2/3 341/2/3 340/2/3
f 346/1/3 340/1/3 345/1/3
f 347/1/3 342/1/3 341/1/3
f 347/2/3 341/2/3 346/2/3
f 348/2/3 343/2/3 342/2/3
f 348/1/3 342/1/3 347/1/3
f 349/2/3 343/2/3 348/2/3
f 354/2/3 351/2/3 350/2/3
f 355/1/3 352/1/3 351/1/3
f 355/2/3 351/2/3 354/2/3
f 356/2/3 353/2/3 352/2/3
f 356/1/3 352/1/3 355/1/3
f 357/2/3 353/2/3 356/2/3
f 360/2/3 359/2/3 358/2/3
f 361/2/3 359/2/3 360/2/3
f 365/1/3 363/1/3 362/1/3
f 366/2/3 364/2/3 363/2/3
f 366/1/3 363/1/3 365/1/3
f 367/2/3 364/2/3 366/2/3
f 370/2/3 369/2/3 368/2/3
f 371/2/3 369/2/3 370/2/3
f 376/2/3 373/2/3 372/2/3
f 377/1/3 374/1/3 373/1/3
f 377/2/3 373/2/3 376/2/3
f 378/2/3 375/2/3 374/2/3
f 378/1/3 374/1/3 377/1/3
f 379/2/3 375/2/3 378/2/3
f 380/1/4 381/1/4 383/1/4
f 381/2/4 382/2/4 384/2/4
f 383/1/4 381/1/4 384/1/4
f 384/2/4 382/2/4 385/2/4
f 386/2/4 387/2/4 389/2/4
f 387/1/4 388/1/4 390/1/4
f 389/2/4 387/2/4 390/2/4
f 390/1/4 388/1/4 391/1/4
f 392/2/4 393/2/4 395/2/4
f 393/2/4 394/2/4 395/2/4
f 395/2/4 394/2/4 396/2/4
f 397/2/4 398/2/4 401/2/4
f 398/1/4 399/1/4 402/1/4
f 401/2/4 398/2/4 402/2/4
f 399/2/4 400/2/4 403/2/4
f 402/1/4 399/1/4 403/1/4
f 403/2/4 400/2/4 404/2/4
f 405/2/4 406/2/4 410/2/4
f 406/1/4 407/1/4 411/1/4
f 410/2/4 406/2/4 411/2/4
f 407/2/4 408/2/4 412/2/4
f 411/1/4 407/1/4 412/1/4
f 408/1/4 409/1/4 413/1/4
f 412/2/4 408/2/4 413/2/4
f 413/1/4 409/1/4 414/1/4
f 415/1/4 416/1/4 417/1/4
f 417/1/4 416/1/4 418/1/4
f 419/2/4 420/2/4 423/2/4
f 420/1/4 421/1/4 424/1/4
f 423/2/4 420/2/4 424/2/4
f 421/2/4 422/2/4 425/2/4
f 424/1/4 421/1/4 425/1/4
f 425/2/4 422/2/4 426/2/4
f 427/1/4 428/1/4 431/1/4
f 428/2/4 429/2/4 432/2/4
f 431/1/4 428/1/4 432/1/4
f 429/1/4 430/1/4 433/1/4
f 432/2/4 429/2/4 433/2/4
f 433/1/4 430/1/4 434/1/4
f 435/2/4 436/2/4 439/2/4
f 436/1/4 437/1/4 440/1/4
f 439/2/4 436/2/4 440/2/4
f 437/2/4 438/2/4 441/2/4
f 440/1/4 437/1/4 441/1/4
f 441/2/4 438/2/4 442/2/4
f 443/1/4 444/1/4 447/1/4
f 444/2/4 445/2/4 448/2/4
f 447/1/4 444/1/4 448/1/4
f 445/1/4 446/1/4 449/1/4
f 448/2/4 445/2/4 449/2/4
f 449/1/4 446/1/4 450/1/4
f 451/1/4 452/1/4 458/1/4
f 452/2/4 453/2/4 459/2/4
f 458/1/4 452/1/4 459/1/4
f 453/1/4 454/1/4 460/1/4
f 459/2/4 453/2/4 460/2/4
f 454/2/4 455/2/4 461/2/4
f 460/1/4 454/1/4 461/1/4
f 455/1/4 456/1/4 462/1/4
f 461/2/4 455/2/4 462/2/4
f 456/2/4 457/2/4 463/2/4
f 462/1/4 456/1/4 463/1/4
f 463/2/4 457/2/4 464/2/4
f 465/2/4 466/2/4 471/2/4
f 466/1/4 467/1/4 472/1/4
f 471/2/4 466/2/4 472/2/4
f 467/2/4 468/2/4 473/2/4
f 472/1/4 467/1/4 473/1/4
f 468/1/4 469/1/4 474/1/4
f 473/2/4 468/2/4 474/2/4
f 469/2/4 470/2/4 475/2/4
f 474/1/4 469/1/4 475/1/4
f 475/2/4 470/2/4 476/2/4
f 477/2/4 478/2/4 481/2/4
f 478/1/4 479/1/4 482/1/4
f 481/2/4 478/2/4 482/2/4
f 479/2/4 480/2/4 483/2/4
f 482/1/4 479/1/4 483/1/4
f 483/2/4 480/2/4 484/2/4
f 485/2/4 486/2/4 487/2/4
f 487/2/4 486/2/4 488/2/4
f 489/1/4 490/1/4 492/1/4
f 490/2/4 491/2/4 493/2/4
f 492/1/4 490/1/4 493/1/4
f 493/2/4 491/2/4 494/2/4
f 495/2/4 496/2/4 497/2/4
f 497/2/4 496/2/4 498/2/4
f 499/2/4 500/2/4 503/2/4
f 500/1/4 501/1/4 504/1/4
f 503/2/4 500/2/4 504/2/4
f 501/2/4 502/2/4 505/2/4
f 504/1/4 501/1/4 505/1/4
f 505/2/4 502/2/4 506/2/4
f 513/1/5 508/1/5 507/1/5
f 514/1/5 508/1/5 513/1/5
f 515/2/5 510/2/5 509/2/5
f 516/2/5 510/2/5 515/2/5
f 518/2/5 512/2/5 511/2/5
f 519/2/5 512/2/5 518/2/5
f 524/2/5 518/2/5 517/2/5
f 525/2/5 518/2/5 524/2/5
f 526/2/5 521/2/5 520/2/5
f 527/2/5 521/2/5 526/2/5
f 528/1/5 523/1/5 522/1/5
f 529/1/5 523/1/5 528/1/5
f 536/2/5 531/2/5 530/2/5
f 537/2/5 531/2/5 536/2/5
f 538/1/5 533/1/5 532/1/5
f 539/1/5 533/1/5 538/1/5
f 540/2/5 535/2/5 534/2/5
f 541/2/5 535/2/5 540/2/5
f 550/1/5 543/1/5 542/1/5
f 551/1/5 543/1/5 550/1/5
f 554/1/5 545/1/5 544/1/5
f 555/1/5 545/1/5 554/1/5
f 556/2/5 547/2/5 546/2/5
f 557/2/5 547/2/5 556/2/5
f 558/2/5 549/2/5 548/2/5
f 559/2/5 549/2/5 558/2/5
f 560/2/5 553/2/5 552/2/5
f 561/2/5 553/2/5 560/2/5
f 568/1/5 563/1/5 562/1/5
f 569/1/5 563/1/5 568/1/5
f 570/2/5 565/2/5 564/2/5
f 571/2/5 565/2/5 570/2/5
f 572/2/5 567/2/5 566/2/5
f 573/2/5 567/2/5 572/2/5
f 574/1/6 575/1/6 578/1/6
f 578/1/6 575/1/6 579/1/6
f 576/2/6 577/2/6 580/2/6
f 580/2/6 577/2/6 581/2/6
f 582/2/6 583/2/6 584/2/6
f 584/2/6 583/2/6 585/2/6
f 586/2/6 587/2/6 588/2/6
f 588/2/6 587/2/6 589/2/6
f 590/2/6 591/2/6 592/2/6
f 592/2/6 591/2/6 593/2/6
f 594/2/6 595/2/6 598/2/6
f 598/2/6 595/2/6 599/2/6
f 596/1/6 597/1/6 600/1/6
f 600/1/6 597/1/6 601/1/6
f 602/2/6 603/2/6 604/2/6
f 604/2/6 603/2/6 605/2/6
f 606/1/6 607/1/6 608/1/6
f 608/1/6 607/1/6 609/1/6
f 610/2/6 611/2/6 612/2/6
f 612/2/6 611/2/6 613/2/6
f 614/2/6 615/2/6 616/2/6
f 616/2/6 615/2/6 617/2/6
f 618/2/6 619/2/6 620/2/6
f 620/2/6 619/2/6 621/2/6
f 622/2/6 623/2/6 624/2/6
f 624/2/6 623/2/6 625/2/6
f 626/1/6 627/1/6 628/1/6
f 628/1/6 627/1/6 629/1/6
f 630/1/6 631/1/6 632/1/6
f 632/1/6 631/1/6 633/1/6
f 634/2/6 635/2/6 636/2/6
f 636/2/6 635/2/6 637/2/6
f 638/2/6 639/2/6 640/2/6
f 640/2/6 639/2/6 641/2/6
